<svg xmlns="http://www.w3.org/2000/svg" xmlns:xlink="http://www.w3.org/1999/xlink" width="153.671" height="80.55" viewBox="0 0 153.671 80.55"><defs><filter id="a" x="0" y="0" width="81.978" height="80.55" filterUnits="userSpaceOnUse"><feOffset dy="3" input="SourceAlpha"/><feGaussianBlur stdDeviation="3" result="b"/><feFlood flood-color="#59e0eb" flood-opacity="0.502"/><feComposite operator="in" in2="b"/><feComposite in="SourceGraphic"/></filter></defs><g transform="translate(9 6)"><g transform="translate(-149.329 -163.991)"><g transform="translate(19.795 12.049)"><g transform="matrix(0.799, -0.602, 0.602, 0.799, 146.718, 191.927)" fill="none"><path d="M26.118-1.527C39.482-4,48.848,2.759,47.038,13.565S32.926,35.134,19.562,37.605s-22.73-4.286-20.92-15.092S12.754.944,26.118-1.527Z" stroke="none"/><path d="M 31.45167922973633 7.963436126708984 C 30.33959579467773 7.963436126708984 29.16307830810547 8.079286575317383 27.9359130859375 8.306186676025391 C 18.02824592590332 10.13806915283203 9.505512237548828 18.18998527526855 8.504428863525391 24.16545104980469 C 8.319694519042969 25.26810264587402 8.427413940429688 26.06513595581055 8.824577331542969 26.53438568115234 C 9.441596984863281 27.26337051391602 11.22691345214844 28.1146354675293 14.22787857055664 28.1146354675293 C 15.33996200561523 28.1146354675293 16.5164794921875 27.99878692626953 17.74364471435547 27.77188491821289 C 27.65129470825195 25.94000244140625 36.17404556274414 17.88808631896973 37.17514419555664 11.91263580322266 C 37.35987854003906 10.80996894836426 37.25216293334961 10.01295280456543 36.85498046875 9.543703079223633 C 36.23797988891602 8.814718246459961 34.45264434814453 7.963436126708984 31.45167922973633 7.963436126708984 M 31.45168113708496 -2.036567687988281 C 41.8759880065918 -2.036567687988281 48.59592437744141 4.263950347900391 47.03769683837891 13.5649528503418 C 45.227294921875 24.37105178833008 32.92591094970703 35.13425064086914 19.5617790222168 37.60522079467773 C 17.70039176940918 37.94937896728516 15.91474914550781 38.11463928222656 14.22787666320801 38.11463928222656 C 3.803569793701172 38.11463928222656 -2.916362762451172 31.81412124633789 -1.358119964599609 22.51311874389648 C 0.4522628784179688 11.7070198059082 12.75364685058594 0.9438209533691406 26.11777877807617 -1.527149200439453 C 27.97916603088379 -1.871307373046875 29.76480865478516 -2.036567687988281 31.45168113708496 -2.036567687988281 Z" stroke="none" fill="#59e0eb"/></g><g transform="matrix(1, 0, 0, 1, 120.53, 145.94)" filter="url(#a)"><g transform="matrix(0.8, -0.6, 0.6, 0.8, 11.67, 36.04)" fill="none"><path d="M26.8-1.358C40.083-4.472,49,1.951,46.714,12.991S31.817,35.5,18.538,38.619-3.655,35.31-1.373,24.271,13.525,1.757,26.8-1.358Z" stroke="none"/><path d="M 33.19181060791016 7.85664176940918 C 31.94351196289063 7.85664176940918 30.56259536743164 8.03209114074707 29.0873966217041 8.378141403198242 C 18.88414573669434 10.77155685424805 9.760845184326172 19.81155776977539 8.420261383056641 26.29530715942383 C 8.126079559326172 27.7181396484375 8.338527679443359 28.38052368164063 8.436145782470703 28.50039100646973 C 8.627178192138672 28.73495864868164 9.719528198242188 29.40457534790039 12.15007781982422 29.40457534790039 C 13.39838027954102 29.40457534790039 14.779296875 29.22912406921387 16.25449562072754 28.8830738067627 C 26.4577465057373 26.48965835571289 35.58104705810547 17.44965744018555 36.921630859375 10.96590805053711 C 37.21581268310547 9.543073654174805 37.00336456298828 8.880691528320313 36.90574645996094 8.760824203491211 C 36.71471405029297 8.52625846862793 35.62236404418945 7.85664176940918 33.19181060791016 7.85664176940918 M 33.19181823730469 -2.143360137939453 C 42.80161666870117 -2.143360137939453 48.60714340209961 3.836719512939453 46.71449661254883 12.99065780639648 C 44.43204498291016 24.02982330322266 31.81711196899414 35.50394058227539 18.53822898864746 38.61880874633789 C 16.27050971984863 39.15074920654297 14.12918853759766 39.40457534790039 12.15007400512695 39.40457534790039 C 2.540275573730469 39.40457534790039 -3.265251159667969 33.42449569702148 -1.372604370117188 24.27055740356445 C 0.9098472595214844 13.23138999938965 13.5247802734375 1.757274627685547 26.80366325378418 -1.357593536376953 C 29.07138252258301 -1.889533996582031 31.21270370483398 -2.143360137939453 33.19181823730469 -2.143360137939453 Z" stroke="none" fill="#9c37b9"/></g></g></g></g><text transform="translate(67.671 62.009)" fill="#9c37b9" font-size="35" font-family="Calibri"><tspan x="0" y="0">Dis</tspan><tspan y="0" fill="#59e0eb">co</tspan></text></g></svg>